<?xml version="1.0" encoding="UTF-8" standalone="no"?>
<!-- Created with Inkscape (http://www.inkscape.org/) -->

<svg
   xmlns:dc="http://purl.org/dc/elements/1.1/"
   xmlns:cc="http://creativecommons.org/ns#"
   xmlns:rdf="http://www.w3.org/1999/02/22-rdf-syntax-ns#"
   xmlns:svg="http://www.w3.org/2000/svg"
   xmlns="http://www.w3.org/2000/svg"
   xmlns:sodipodi="http://sodipodi.sourceforge.net/DTD/sodipodi-0.dtd"
   xmlns:inkscape="http://www.inkscape.org/namespaces/inkscape"
   version="1.1"
   id="svg2"
   width="343.59415"
   height="354.05136"
   viewBox="0 0 343.59415 354.05136"
   sodipodi:docname="ua 3.svg"
   inkscape:version="0.92.4 (5da689c313, 2019-01-14)">
  <metadata
     id="metadata8">
    <rdf:RDF>
      <cc:Work
         rdf:about="">
        <dc:format>image/svg+xml</dc:format>
        <dc:type
           rdf:resource="http://purl.org/dc/dcmitype/StillImage" />
        <dc:title></dc:title>
      </cc:Work>
    </rdf:RDF>
  </metadata>
  <defs
     id="defs6" />
  <sodipodi:namedview
     pagecolor="#ffffff"
     bordercolor="#666666"
     borderopacity="1"
     objecttolerance="10"
     gridtolerance="10"
     guidetolerance="10"
     inkscape:pageopacity="0"
     inkscape:pageshadow="2"
     inkscape:window-width="1920"
     inkscape:window-height="1017"
     id="namedview4"
     showgrid="false"
     inkscape:snap-global="false"
     inkscape:zoom="1.42"
     inkscape:cx="-125.76952"
     inkscape:cy="159.95718"
     inkscape:window-x="-8"
     inkscape:window-y="-8"
     inkscape:window-maximized="1"
     inkscape:current-layer="layer2"
     fit-margin-top="0"
     fit-margin-left="0"
     fit-margin-right="0"
     fit-margin-bottom="0" />
  <g
     inkscape:groupmode="layer"
     id="layer2"
     inkscape:label="Layer 0"
     transform="translate(-234.37553,-135.21544)">
    <rect
       style="fill:#ee4465;fill-opacity:1;stroke:none;stroke-width:5.9000001;stroke-linecap:round;stroke-linejoin:round;stroke-miterlimit:4;stroke-dasharray:none;stroke-dashoffset:0;stroke-opacity:1;paint-order:normal"
       id="rect823"
       width="373.94366"
       height="378.87326"
       x="218.88258"
       y="120.25272"
       ry="15.3571" />
  </g>
  <g
     inkscape:label="Layer 1 copy"
     id="g856"
     inkscape:groupmode="layer"
     transform="translate(-234.37553,-135.21544)">
    <path
       sodipodi:nodetypes="cccc"
       inkscape:connector-curvature="0"
       id="path838"
       d="m 332.1499,257.01254 c 0,0 -68.31706,41.2627 -64.23272,99.86058 0,0 18.83719,19.54798 34.15345,43.29023 0,0 -1.34541,-91.97266 30.07927,-143.15081 z"
       style="fill:#ffffff;fill-opacity:1;stroke:none;stroke-width:1.01999998;stroke-linecap:butt;stroke-linejoin:miter;stroke-miterlimit:4;stroke-dasharray:none;stroke-opacity:1" />
    <path
       sodipodi:nodetypes="cccc"
       inkscape:connector-curvature="0"
       id="path840"
       d="m 313.08435,433.18255 c 0,0 41.56543,-12.94702 92.25714,0 0,0 -45.74057,-50.7406 -69.54177,-174.73327 0,0 -42.1872,78.62651 -22.71537,174.73327 z"
       style="fill:#ffffff;fill-opacity:1;stroke:none;stroke-width:0.9897542px;stroke-linecap:butt;stroke-linejoin:miter;stroke-opacity:1" />
    <path
       sodipodi:nodetypes="cccc"
       inkscape:connector-curvature="0"
       id="path842"
       d="m 413.30889,429.69682 c 0,0 -48.11562,-53.09525 -72.01782,-172.60626 0,0 101.62712,26.90343 165.63478,76.99745 0,0 -81.16789,61.24939 -93.61696,95.60881 z"
       style="fill:#ffffff;fill-opacity:1;stroke:none;stroke-width:1px;stroke-linecap:butt;stroke-linejoin:miter;stroke-opacity:1" />
    <path
       sodipodi:nodetypes="cccc"
       inkscape:connector-curvature="0"
       id="path844"
       d="m 506.42789,323.13284 c 0,0 -60.1818,-41.86228 -163.85988,-70.49816 0,0 81.32499,-54.14869 174.81505,-29.09435 0,0 -23.52507,47.95026 -10.95517,99.59251 z"
       style="fill:#ffffff;fill-opacity:1;stroke:none;stroke-width:1px;stroke-linecap:butt;stroke-linejoin:miter;stroke-opacity:1" />
    <path
       sodipodi:nodetypes="cccc"
       inkscape:connector-curvature="0"
       id="path846"
       d="m 509.65731,214.28531 c 0,0 -38.58476,-14.64718 -60.99308,-39.04734 0,0 -76.06927,-10.54265 -108.12011,72.84838 0,0 75.43582,-49.62538 169.11319,-33.80104 z"
       style="fill:#ffffff;fill-opacity:1;stroke:none;stroke-width:1px;stroke-linecap:butt;stroke-linejoin:miter;stroke-opacity:1" />
    <path
       sodipodi:nodetypes="cccc"
       inkscape:connector-curvature="0"
       id="path848"
       d="m 336.26429,246.88416 c 0,0 2.97268,-18.30195 36.70964,-57.70324 0,0 -21.9932,3.98629 -40.7751,21.97336 0,0 0.87921,28.48655 4.06546,35.72988 z"
       style="fill:#ffffff;fill-opacity:1;stroke:none;stroke-width:1px;stroke-linecap:butt;stroke-linejoin:miter;stroke-opacity:1" />
    <path
       sodipodi:nodetypes="cccc"
       inkscape:connector-curvature="0"
       id="path850"
       d="m 332.29203,249.40936 c -3.69977,-16.49148 -2.31635,-17.00151 -4.3082,-35.92408 0,0 -16.46038,13.15588 -25.46428,29.12866 0,0 14.01633,0.29429 29.77248,6.79542 z"
       style="fill:#ffffff;fill-opacity:1;stroke:none;stroke-width:1px;stroke-linecap:butt;stroke-linejoin:miter;stroke-opacity:1" />
    <path
       sodipodi:nodetypes="cccc"
       inkscape:connector-curvature="0"
       id="path852"
       d="m 330.49771,253.22888 c 0,0 -30.47867,17.18083 -50.40935,47.4449 0,0 0.86864,-26.20504 20.26727,-54.20075 0,0 19.03238,2.30482 30.14208,6.75585 z"
       style="fill:#ffffff;fill-opacity:1;stroke:none;stroke-width:1.04697633px;stroke-linecap:butt;stroke-linejoin:miter;stroke-opacity:1" />
    <path
       sodipodi:nodetypes="ccccc"
       inkscape:connector-curvature="0"
       id="path854"
       d="m 460.07465,382.03827 6.47352,-6.47351 43.36546,43.17688 c 0,0 3.61022,9.897 -6.47352,6.97148 z"
       style="fill:#ffffff;fill-opacity:1;stroke:none;stroke-width:1px;stroke-linecap:butt;stroke-linejoin:miter;stroke-opacity:1" />
  </g>
</svg>
